<svg xmlns="http://www.w3.org/2000/svg" viewBox="0 0 256 256" fill="none">
  <defs>
    <clipPath id="mountainClip">
      <ellipse cx="128" cy="130" rx="74" ry="43" />
    </clipPath>
  </defs>
  <rect width="256" height="256" rx="52" fill="#F8F9FA" />
  <g transform="translate(0 2)">
    <g clip-path="url(#mountainClip)">
      <polygon points="42,174 100,110 125,129 156,89 156,174" fill="#1D3557" />
      <polygon points="156,89 186,121 212,103 252,174 156,174" fill="#E63946" />
      <path d="M154 96 C137 111, 167 133, 136 174 L 166 174 C 185 138, 158 110, 155 96 Z" fill="#F8F9FA" />
    </g>
    <path d="M145 83 A 76 45 0 0 0 118 172" fill="none" stroke="#1D3557" stroke-width="7" stroke-linecap="round" />
    <path d="M168 172 A 76 45 0 0 0 157 83" fill="none" stroke="#E63946" stroke-width="7" stroke-linecap="round" />
    <line x1="156" y1="90" x2="156" y2="44" stroke="#E63946" stroke-width="5" stroke-linecap="round" />
    <circle cx="156" cy="41" r="4" fill="#1D3557" />
    <path d="M159 49 C 171 42, 181 58, 195 49 L 195 73 C 181 83, 171 67, 159 74 Z" fill="#E63946" />
  </g>
</svg>