<svg xmlns="http://www.w3.org/2000/svg" viewBox="0 0 800 600" width="100%" height="100%">
  <defs>
    <clipPath id="mountainClip">
      <ellipse cx="400" cy="240" rx="186" ry="106" />
    </clipPath>
  </defs>

  <g transform="translate(0, 25)">
    <g clip-path="url(#mountainClip)">
      <polygon points="80,360 240,190 310,240 400,140 400,360" fill="#1D3557" />
      <polygon points="400,140 480,220 550,170 720,360 400,360" fill="#E63946" />
      <path d="M 398 155 C 350 200, 440 260, 346 360 L 434 360 C 490 260, 410 200, 402 155 Z" fill="#F8F9FA" />
    </g>

    <path d="M 385 132 A 190 110 0 0 0 348 346" fill="none" stroke="#1D3557" stroke-width="8" stroke-linecap="round" />
    <path d="M 432 346 A 190 110 0 0 0 415 132" fill="none" stroke="#E63946" stroke-width="8" stroke-linecap="round" />

    <line x1="400" y1="140" x2="400" y2="60" stroke="#E63946" stroke-width="5" stroke-linecap="round" />
    <circle cx="400" cy="58" r="4.5" fill="#1D3557" />
    <path d="M 402.5 65 C 420 55, 435 80, 455 65 L 455 100 C 435 115, 420 90, 402.5 100 Z" fill="#E63946" />

    <text x="400" y="440" font-family="'Montserrat', 'Helvetica Neue', 'Arial Black', sans-serif" font-weight="900" font-size="72" text-anchor="middle" letter-spacing="2">
      <tspan fill="#1D3557">MOUNT</tspan><tspan fill="#E63946">POLE</tspan>
    </text>

    <text x="400" y="490" font-family="'Montserrat', 'Helvetica Neue', Arial, sans-serif" font-weight="700" font-size="20" text-anchor="middle" letter-spacing="6" fill="#1D3557">WALK TOGETHER AIM HIGH</text>
  </g>
</svg>